<svg width="20" height="20" viewBox="0 0 20 20" fill="none" xmlns="http://www.w3.org/2000/svg">
<path d="M14.6354 17.9664C14.5003 17.9663 14.3672 17.9335 14.2476 17.8707L9.99994 15.6377L5.7523 17.8707C5.61465 17.9431 5.45951 17.9755 5.30442 17.9643C5.14932 17.953 5.00046 17.8987 4.87465 17.8073C4.74884 17.7159 4.65111 17.5911 4.5925 17.4471C4.53389 17.3031 4.51674 17.1455 4.54299 16.9922L5.35435 12.2624L1.91807 8.91324C1.80676 8.80467 1.72802 8.66713 1.69077 8.51616C1.65353 8.36519 1.65925 8.20681 1.70729 8.05892C1.75533 7.91103 1.84378 7.77953 1.96264 7.67927C2.0815 7.57901 2.22604 7.514 2.37991 7.49158L7.12885 6.80147L9.25244 2.49842C9.32919 2.36846 9.4385 2.26076 9.56958 2.18595C9.70066 2.11113 9.84899 2.07178 9.99992 2.07178C10.1508 2.07178 10.2992 2.11113 10.4302 2.18595C10.5613 2.26076 10.6706 2.36846 10.7474 2.49842L12.871 6.80139L17.6199 7.4915C17.7738 7.51392 17.9184 7.57894 18.0372 7.6792C18.1561 7.77945 18.2445 7.91096 18.2926 8.05885C18.3406 8.20674 18.3463 8.36512 18.3091 8.51609C18.2718 8.66706 18.1931 8.8046 18.0818 8.91317L14.6455 12.2623L15.4569 16.9922C15.4774 17.1118 15.4715 17.2344 15.4397 17.3516C15.4078 17.4687 15.3508 17.5774 15.2726 17.6702C15.1943 17.763 15.0967 17.8376 14.9867 17.8887C14.8766 17.9399 14.7567 17.9663 14.6353 17.9663L14.6354 17.9664Z" fill="#FFC700"/>
<path d="M18.2926 8.05859C18.2446 7.91073 18.1561 7.77926 18.0372 7.67903C17.9184 7.5788 17.7739 7.5138 17.62 7.49137L12.8711 6.80126L10.7475 2.49829C10.6751 2.36451 10.5668 2.25365 10.4347 2.17825C10.3026 2.10285 10.152 2.06591 10 2.07162V15.6375L14.2476 17.8706C14.3853 17.9429 14.5404 17.9753 14.6955 17.9641C14.8506 17.9529 14.9995 17.8985 15.1253 17.8071C15.2511 17.7157 15.3488 17.591 15.4074 17.447C15.4661 17.3029 15.4832 17.1454 15.4569 16.9921L14.6456 12.2623L18.0819 8.91311C18.1932 8.8045 18.2719 8.66693 18.3092 8.51592C18.3464 8.36492 18.3407 8.20651 18.2926 8.05859V8.05859Z" fill="#FFC700"/>
</svg>
