<svg width="48" height="48" viewBox="0 0 48 48" fill="none" xmlns="http://www.w3.org/2000/svg">
<path d="M35.1248 43.1191C34.8006 43.119 34.4812 43.0402 34.1941 42.8896L23.9998 37.5303L13.8054 42.8896C13.4751 43.0633 13.1027 43.141 12.7305 43.1141C12.3583 43.0872 12.001 42.9567 11.6991 42.7374C11.3971 42.518 11.1626 42.2186 11.0219 41.8729C10.8812 41.5272 10.8401 41.1491 10.9031 40.7812L12.8503 29.4297L4.60328 21.3917C4.33612 21.1311 4.14716 20.801 4.05776 20.4387C3.96836 20.0764 3.98209 19.6962 4.09739 19.3413C4.2127 18.9864 4.42497 18.6708 4.71024 18.4302C4.99551 18.1895 5.34239 18.0335 5.71168 17.9797L17.1091 16.3234L22.2058 5.99611C22.39 5.68421 22.6523 5.42573 22.9669 5.24617C23.2815 5.06661 23.6375 4.97217 23.9997 4.97217C24.3619 4.97217 24.7179 5.06661 25.0325 5.24617C25.3471 5.42573 25.6094 5.68421 25.7936 5.99611L30.8903 16.3232L42.2878 17.9795C42.6571 18.0333 43.004 18.1894 43.2892 18.43C43.5745 18.6706 43.7868 18.9862 43.9021 19.3411C44.0174 19.6961 44.0311 20.0762 43.9417 20.4385C43.8523 20.8008 43.6633 21.1309 43.3962 21.3915L35.1491 29.4295L37.0964 40.7811C37.1456 41.0682 37.1315 41.3626 37.0551 41.6436C36.9787 41.9247 36.8418 42.1857 36.6541 42.4084C36.4663 42.6311 36.2321 42.8101 35.9679 42.9328C35.7038 43.0556 35.416 43.1191 35.1247 43.1191L35.1248 43.1191Z" fill="#888888"/>
<path d="M43.9023 19.3408C43.787 18.9859 43.5747 18.6704 43.2894 18.4299C43.0042 18.1893 42.6573 18.0333 42.2881 17.9795L30.8906 16.3232L25.794 5.99608C25.6203 5.67501 25.3602 5.40896 25.0432 5.22799C24.7261 5.04703 24.3648 4.95839 24 4.97208V37.5303L34.1943 42.8896C34.5247 43.0633 34.897 43.141 35.2693 43.1141C35.6415 43.0872 35.9988 42.9567 36.3007 42.7373C36.6026 42.518 36.8372 42.2186 36.9779 41.8729C37.1185 41.5272 37.1597 41.1491 37.0967 40.7812L35.1494 29.4297L43.3965 21.3917C43.6637 21.131 43.8526 20.8008 43.942 20.4384C44.0314 20.076 44.0177 19.6958 43.9023 19.3408Z" fill="#888888"/>
</svg>
